<svg version="1.2" xmlns="http://www.w3.org/2000/svg" viewBox="0 0 1458 1516" width="18" height="18">
	<title>continental-svg</title>
	<style>
		.s0 { fill: #000000 } 
	</style>
	<g id="i-logo">
		<g id="logo">
			<path id="Layer" fill-rule="evenodd" class="s0" d="m0.1 1466.6h1456.9v49.4h-1456.9zm933.4-802.4c44.5 37.1 177.8 71.6 177.8 204.9-1 14.1-3.2 28-6.5 41.7-3.2 13.7-7.6 27.1-13.1 40.1-5.4 13-11.9 25.5-19.4 37.5-7.5 11.9-15.9 23.2-25.2 33.8l39.5 138.2c5 9.9 5 14.9-4.9 24.7l-148.2 163-14.8 69.1h-123.5c0.6-11.2 2.6-22.3 6-33.1 3.4-10.7 8.2-20.9 14.2-30.4 6-9.5 13.3-18.1 21.5-25.8 8.3-7.6 17.5-14.1 27.5-19.3l103.7-133.3-177.8-182.7q-5-13.8-9.4-27.9-4.4-14-8.1-28.2-3.7-14.2-6.7-28.6-3.1-14.4-5.4-28.9-28.3-16.6-55.8-34.5-27.4-17.9-54-37.1-26.6-19.1-52.3-39.5-25.6-20.4-50.3-42-11.3-13.8-21.9-28.1-10.6-14.4-20.4-29.2-9.9-14.9-19.1-30.1-9.2-15.3-17.6-31.1l-148.2-103.6-54.3 39.5v88.8q1.9 7.9 4.5 15.5 2.5 7.7 5.6 15.1 3.1 7.4 6.8 14.6 3.6 7.2 7.8 14.1l-54.3 83.9c-6-8.1-11.3-16.8-15.8-25.8-4.5-9-8.2-18.4-11.1-28-3-9.7-5.1-19.6-6.4-29.6-1.3-10-1.7-20.1-1.3-30.1v-34.6l4.9-103.7q0.1-2.9 0.8-5.6 0.7-2.8 1.9-5.4 1.3-2.5 3.1-4.8 1.8-2.2 4.1-3.9l88.9-93.9c4.9-4.9 9.9-4.9 19.8-4.9l118.5 39.5 98.8-69.1 83.9-123.5q-16.8 2.2-33.6 4.9-16.7 2.6-33.4 5.7-16.7 3.1-33.3 6.6-16.5 3.6-33 7.5-4.7-1.7-9.2-3.8-4.6-2.2-8.9-4.6-4.4-2.5-8.5-5.4-4.1-2.8-8-5.9-1.7-7.3-2.9-14.7-1.1-7.3-1.7-14.8-0.7-7.4-0.7-14.9-0.1-7.4 0.4-14.9c64.2-49.3 138.2-98.7 202.5-138.2l-5-54.3c0-5 5-5 9.9-5 19.7 0 64.2 49.4 74.1 64.2q9.7 12.2 18.8 24.9 9.2 12.6 17.9 25.5 8.6 13 16.7 26.3 8.2 13.4 15.7 27c2.8 24.6 4.1 49.4 3.8 74.1-0.2 24.8-2 49.5-5.4 74-3.3 24.6-8.1 48.9-14.5 72.8-6.3 23.9-14.1 47.5-23.4 70.4q19.4 27.2 39.6 53.7 20.2 26.6 41.2 52.6 21 25.9 42.8 51.2 21.8 25.3 44.3 49.9zm-669.2-264.2c17.3-4.9 17.3 0 12.4 5l-79 83.9-24.7 9.9q-6.1 5.1-11.8 10.4-5.8 5.3-11.4 10.9-5.6 5.5-10.9 11.3-5.3 5.8-10.4 11.8l-98.8-24.7c0-14.8 24.7-39.5 49.4-54.3q9-4.8 18.2-9.4 9.1-4.6 18.4-8.9 9.2-4.4 18.6-8.4 9.4-4.1 18.9-7.8c0 0 108.7-29.7 113.6-29.7zm466.7 839.4l138.3-133.3 54.3 54.3-148.2 123.5c-9.8 14.8-19.7 39.5-29.6 54.3h-108.6c4.3-10.8 9.6-21.2 15.9-31 6.3-9.8 13.5-19 21.5-27.4 8-8.5 16.8-16.1 26.3-22.9 9.4-6.8 19.5-12.6 30.1-17.5zm424.7-355.5q-3.4-12-7.2-23.9-3.9-11.9-8.2-23.7-4.4-11.7-9.1-23.3-4.8-11.5-10-22.9c-3.5-7.6 4.9-4.9 19.7 0 14.8 4.9 88.9 59.3 88.9 59.3 39.5 54.3 64.2 291.3 64.2 375.2q-16.2-6.8-31.8-14.8-15.6-8.1-30.5-17.4-14.9-9.3-28.9-19.8-14.1-10.5-27.3-22.1z"/>
		</g>
	</g>
</svg>
